<?xml version="1.0" encoding="UTF-8"?>
<svg xmlns="http://www.w3.org/2000/svg" xmlns:xlink="http://www.w3.org/1999/xlink" width="3750" height="3750" viewBox="0 0 3750 3750">
<path fill-rule="nonzero" fill="rgb(45.092773%, 96.09375%, 100%)" fill-opacity="1" d="M 3750 0 L 0 0 L 0 3749.992188 L 3750 3749.992188 L 3750 0 "/>
<path fill-rule="nonzero" fill="rgb(45.092773%, 25.488281%, 15.281677%)" fill-opacity="1" d="M 2683.589844 1207.820312 C 2683.589844 1207.820312 2888.191406 1409.851562 2760.511719 1512.808594 C 2632.839844 1615.769531 2929.359375 2044.078125 2892.300781 2060.550781 C 2876.019531 2067.789062 2867.699219 2066.28125 2863.46875 2062.328125 C 2872.988281 2096.25 2894.910156 2186.339844 2871.710938 2229.429688 C 2842.878906 2282.96875 2838.75 2303.558594 2838.75 2303.558594 C 2838.75 2303.558594 2888.191406 2505.359375 2842.878906 2505.359375 C 2797.578125 2505.359375 2752.269531 2480.660156 2752.269531 2480.660156 C 2852.21875 2620.578125 2856.171875 2824.789062 2807.488281 2961.242188 C 2826.179688 3023.382812 2842.929688 3090.070312 2834.640625 3106.65625 C 2818.171875 3139.605469 2772.871094 3057.230469 2772.871094 3057.230469 C 2772.871094 3057.230469 2871.699219 3399.070312 2739.910156 3411.425781 C 2608.121094 3423.777344 2385.738281 3102.527344 2422.808594 3032.515625 C 2433.460938 3012.394531 2466.601562 2988.195312 2508.378906 2963.921875 C 2408.621094 2793.242188 2261.199219 2484.140625 2258.070312 2455.941406 C 2253.949219 2418.878906 2208.648438 1904.078125 2229.238281 1825.828125 C 2249.828125 1747.578125 2421.328125 1215.839844 2683.589844 1207.828125 "/>
<path fill-rule="nonzero" fill="rgb(25.097656%, 74.021912%, 56.834412%)" fill-opacity="1" d="M 828.332031 1632.828125 C 934.316406 1632.828125 1559.578125 2024.519531 1559.578125 2024.519531 C 1559.578125 2024.519531 1940.171875 2136.691406 2269.691406 2447.941406 C 2509.730469 2674.679688 2821.898438 3220.050781 2852.25 3749.992188 L 526.238281 3749.992188 C 600.808594 3353.199219 764.746094 3061.902344 764.746094 3061.902344 C 764.746094 3061.902344 457.367188 2903.121094 457.367188 2617.308594 C 457.367188 2331.5 563.347656 2373.808594 626.9375 2289.128906 C 690.527344 2204.441406 722.351562 1632.828125 828.332031 1632.828125 "/>
<path fill-rule="nonzero" fill="rgb(18.431091%, 54.101562%, 41.575623%)" fill-opacity="1" d="M 744.917969 2347.429688 C 744.917969 2347.429688 736.941406 2248.519531 901.855469 2268.828125 C 1066.769531 2289.148438 1061.480469 2421.46875 1061.480469 2421.46875 C 1061.480469 2421.46875 955.789062 2331.449219 744.917969 2347.429688 "/>
<path fill-rule="nonzero" fill="rgb(10.205078%, 10.205078%, 10.205078%)" fill-opacity="1" d="M 3292.410156 854.808594 C 3292.410156 854.808594 3318.699219 1104.898438 2797.871094 1059.988281 C 2277.019531 1015.070312 3292.410156 854.808594 3292.410156 854.808594 "/>
<path fill-rule="nonzero" fill="rgb(100%, 85.9375%, 75.78125%)" fill-opacity="1" d="M 2683.578125 1207.820312 C 2683.578125 1215.300781 2757.371094 1351.179688 2755.5 1366.148438 C 2753.628906 1381.121094 2719.769531 1429.191406 2742.25 1464.75 C 2764.738281 1500.300781 2921.480469 1725.46875 2902.929688 1751.929688 C 2884.378906 1778.398438 2786.351562 1812.808594 2786.351562 1812.808594 C 2786.351562 1812.808594 2807.550781 1884.261719 2799.601562 1900.140625 C 2791.648438 1916.011719 2760.390625 1932 2760.390625 1932 L 2767.890625 2023.691406 C 2767.890625 2023.691406 2812.859375 2019.949219 2797.871094 2061.121094 C 2782.878906 2102.289062 2773.511719 2143.460938 2773.511719 2143.460938 C 2773.511719 2143.460938 2839.089844 2306.261719 2786.628906 2336.199219 C 2734.171875 2366.140625 2292.019531 2452.21875 2228.320312 2470.929688 C 2164.621094 2489.648438 2078.429688 1909.550781 2078.429688 1909.550781 C 2078.429688 1909.550781 1973.519531 1179.75 2029.71875 1161.03125 C 2085.929688 1142.320312 2683.578125 1207.820312 2683.578125 1207.820312 "/>
<path fill-rule="nonzero" fill="rgb(100%, 65.039062%, 51.756287%)" fill-opacity="1" d="M 2691.289062 2111.621094 C 2714.769531 2111.589844 2754.578125 2118.480469 2778.671875 2123.101562 C 2775.519531 2134.949219 2773.511719 2143.460938 2773.511719 2143.460938 C 2773.511719 2143.460938 2786.398438 2175.5 2796.179688 2213.738281 C 2760.21875 2227.078125 2687.828125 2142.890625 2673.730469 2120.71875 C 2669.46875 2114.039062 2677.519531 2111.628906 2691.289062 2111.621094 Z M 2148.339844 2282.578125 C 2293.691406 2316.710938 2572.78125 2343.21875 2728.308594 2356.140625 C 2592.488281 2393.910156 2281.011719 2455.449219 2228.308594 2470.929688 C 2202.929688 2478.390625 2173.988281 2390.699219 2148.339844 2282.578125 "/>
<path fill-rule="nonzero" fill="rgb(10.205078%, 10.205078%, 10.205078%)" fill-opacity="1" d="M 2653.871094 1267.648438 C 2653.871094 1267.648438 2692.289062 1323.21875 2667.121094 1328.511719 C 2641.941406 1333.800781 2591.601562 1306.019531 2526.691406 1319.25 C 2461.78125 1332.480469 2373.019531 1374.820312 2373.019531 1374.820312 C 2373.019531 1374.820312 2435.28125 1238.53125 2653.871094 1267.648438 "/>
<path fill-rule="nonzero" fill="rgb(18.431091%, 54.101562%, 41.575623%)" fill-opacity="1" d="M 764.746094 3061.902344 C 764.746094 3061.902344 965.558594 2920.039062 1156.660156 2893.84375 C 1347.761719 2867.644531 796.246094 2769.625 764.746094 3061.902344 "/>
<path fill-rule="nonzero" fill="rgb(18.431091%, 54.101562%, 41.575623%)" fill-opacity="1" d="M 1787.890625 3010.003906 C 2038.878906 3010.335938 2246.011719 3043.839844 2211.609375 3159.324219 C 2166.460938 3310.910156 2214.191406 3558.820312 2265.78125 3750 L 1398.488281 3750 C 1223.519531 3451.425781 1017.628906 3071.960938 1017.628906 3071.960938 C 1017.628906 3071.960938 1443.941406 3009.667969 1787.890625 3010.003906 "/>
<path fill-rule="nonzero" fill="rgb(56.834412%, 32.151794%, 19.213867%)" fill-opacity="1" d="M 2299.511719 1247.121094 C 2299.511719 1247.121094 2261.738281 1309.988281 2309.429688 1386.738281 C 2357.121094 1463.480469 2433.960938 1685.769531 2333.269531 1632.851562 C 2232.589844 1579.921875 2383.621094 1736.058594 2354.46875 1746.640625 C 2325.328125 1757.230469 2298.828125 1762.519531 2298.828125 1762.519531 C 2298.828125 1762.519531 2510.800781 1979.53125 2481.648438 2037.738281 C 2481.648438 2037.738281 2449.859375 1958.351562 2399.511719 1955.710938 C 2399.511719 1955.710938 2471.050781 2043.039062 2431.308594 2074.800781 C 2431.308594 2074.800781 2582.328125 2191.238281 2518.738281 2260.039062 C 2518.738281 2260.039062 2645.921875 2416.179688 2574.378906 2492.929688 C 2574.378906 2492.929688 2781.050781 2593.488281 2712.160156 2715.21875 C 2643.269531 2836.953125 2712.160156 2908.410156 2712.160156 2908.410156 C 2712.160156 2908.410156 2614.128906 2895.179688 2648.570312 2789.320312 C 2683.011719 2683.46875 2614.128906 2646.421875 2614.128906 2646.421875 C 2614.128906 2646.421875 2688.320312 2791.96875 2598.230469 2868.714844 C 2598.230469 2868.714844 2767.800781 3128.0625 2550.539062 3122.769531 C 2550.539062 3122.769531 2370.371094 3559.425781 2354.46875 3448.277344 C 2338.570312 3337.125 2343.871094 3284.199219 2343.871094 3284.199219 C 2343.871094 3284.199219 2208.660156 3764.183594 2182.171875 3679.496094 C 2155.671875 3594.8125 2116.011719 3601.765625 2116.011719 3601.765625 C 2116.011719 3601.765625 2031.21875 3702.328125 1978.230469 3749.960938 L 860.117188 3749.960938 C 860.117188 3749.960938 838.917969 3593.828125 857.472656 3530.316406 C 876.019531 3466.796875 891.917969 3437.6875 891.917969 3437.6875 C 891.917969 3437.6875 825.679688 3607.058594 817.726562 3532.957031 C 809.78125 3458.859375 915.761719 3273.613281 915.761719 3273.613281 C 915.761719 3273.613281 870.722656 3157.175781 902.515625 3046.023438 C 934.3125 2934.871094 1019.101562 2929.582031 1019.101562 2929.582031 C 1019.101562 2929.582031 865.421875 2903.117188 913.113281 2855.480469 C 960.804688 2807.847656 1013.800781 2807.847656 1013.800781 2807.847656 C 1013.800781 2807.847656 913.113281 2776.089844 950.207031 2691.398438 C 987.300781 2606.71875 1082.679688 2580.261719 1082.679688 2559.078125 C 1082.679688 2537.910156 982.003906 2516.738281 939.609375 2601.429688 C 939.609375 2601.429688 966.105469 2437.351562 1061.488281 2421.46875 C 1061.488281 2421.46875 997.898438 2267.980469 1066.78125 2289.148438 C 1135.671875 2310.328125 1156.871094 2347.371094 1156.871094 2347.371094 C 1156.871094 2347.371094 1082.679688 2220.351562 1146.269531 2140.960938 C 1209.859375 2061.558594 1231.050781 2045.679688 1231.050781 2045.679688 C 1231.050781 2045.679688 1178.058594 1961 1315.839844 1796.921875 C 1453.609375 1632.851562 1660.28125 1272.941406 1734.46875 1235.890625 C 1808.660156 1198.839844 2299.511719 1247.109375 2299.511719 1247.109375 "/>
<path fill-rule="nonzero" fill="rgb(19.993591%, 19.993591%, 19.993591%)" fill-opacity="1" d="M 3292.410156 854.808594 C 3292.410156 854.808594 3168.820312 1059.988281 2947.75 1183.488281 C 2726.671875 1307 2085.921875 1299.511719 2085.921875 1299.511719 C 2085.921875 1299.511719 1351.5 1830.960938 1321.53125 1842.179688 C 1291.550781 1853.421875 1231.601562 1827.210938 1216.609375 1778.558594 C 1201.621094 1729.898438 1104.199219 1628.859375 1025.511719 1568.96875 C 946.824219 1509.101562 961.808594 1071.21875 1040.5 970.171875 C 1119.191406 869.121094 1381.480469 599.648438 1452.679688 562.230469 C 1523.871094 524.800781 2029.71875 315.21875 2082.179688 333.929688 C 2134.640625 352.640625 2629.25 805.488281 2677.960938 880.339844 C 2677.960938 880.339844 3269.871094 821.789062 3292.410156 854.808594 "/>
<path fill-rule="nonzero" fill="rgb(10.205078%, 10.205078%, 10.205078%)" fill-opacity="1" d="M 2806.289062 1763.589844 C 2806.289062 1763.589844 2736.96875 1743.941406 2709.808594 1762.621094 C 2682.640625 1781.328125 2774.441406 1773.851562 2806.289062 1763.589844 "/>
<path fill-rule="nonzero" fill="rgb(100%, 65.039062%, 51.756287%)" fill-opacity="1" d="M 2659.21875 1801.019531 C 2659.21875 1801.019531 2632.988281 1774.820312 2642.359375 1743 C 2651.730469 1711.199219 2662.96875 1701.839844 2662.96875 1701.839844 C 2662.96875 1701.839844 2567.421875 1772.941406 2659.21875 1801.019531 "/>
<path fill-rule="nonzero" fill="rgb(100%, 33.325195%, 33.325195%)" fill-opacity="1" d="M 2771.609375 1853.160156 C 2772.078125 1853.160156 2772.539062 1853.160156 2772.949219 1853.160156 C 2787.949219 1854.839844 2796.238281 1867.210938 2800.621094 1877.511719 C 2801.71875 1887.410156 2801.761719 1895.789062 2799.609375 1900.089844 C 2791.660156 1915.960938 2760.410156 1931.949219 2760.410156 1931.949219 L 2767.921875 2023.640625 C 2767.921875 2023.640625 2812.871094 2019.898438 2797.890625 2061.070312 C 2794.039062 2071.640625 2790.570312 2082.171875 2787.53125 2092.050781 C 2713.230469 2128.921875 2585.109375 1975.511719 2585.121094 1975.46875 L 2581.488281 1954.371094 C 2581.488281 1954.371094 2741.628906 1853.480469 2771.628906 1853.109375 "/>
<path fill-rule="nonzero" fill="rgb(100%, 100%, 100%)" fill-opacity="1" d="M 2760.421875 1931.988281 L 2767.910156 2023.710938 C 2767.910156 2023.710938 2574.390625 1976.890625 2586.320312 1959.691406 C 2671.101562 1931.421875 2716.398438 1933.960938 2760.421875 1931.988281 "/>
<path fill-rule="nonzero" fill="rgb(10.205078%, 10.205078%, 10.205078%)" fill-opacity="1" d="M 2638.261719 1402.609375 C 2638.261719 1402.609375 2598.230469 1390.710938 2539.941406 1402.609375 C 2481.648438 1414.519531 2415.410156 1496.558594 2415.410156 1496.558594 C 2411.800781 1488.441406 2570.5 1451.320312 2603.25 1480.679688 C 2603.25 1480.679688 2605.761719 1450.25 2570.210938 1437.019531 C 2570.210938 1437.019531 2621.339844 1415.839844 2638.261719 1402.609375 "/>
<path fill-rule="nonzero" fill="rgb(30.200195%, 30.200195%, 30.200195%)" fill-opacity="1" d="M 2186.289062 1237.269531 C 2186.289062 1237.269531 2625.878906 1008.679688 2633.25 958.871094 C 2640.621094 909.058594 2238.128906 1159.269531 2186.289062 1237.269531 "/>
<path fill-rule="nonzero" fill="rgb(69.726562%, 44.309998%, 30.979919%)" fill-opacity="1" d="M 2121.308594 1712.238281 C 2121.308594 1712.238281 2068.308594 1950.421875 2105.410156 1982.171875 C 2142.511719 2013.929688 2269.679688 2045.679688 2216.691406 2066.859375 C 2163.699219 2088.03125 2089.511719 2040.390625 2089.511719 2146.25 C 2089.511719 2252.109375 2163.699219 2368.550781 2163.699219 2368.550781 C 2163.699219 2368.550781 2100.109375 2241.519531 2110.710938 2336.789062 C 2121.308594 2432.058594 2142.511719 2617.308594 2105.410156 2574.960938 C 2068.320312 2532.621094 2015.328125 2638.480469 2025.929688 2696.699219 C 2036.53125 2754.921875 2137.210938 2871.359375 2137.210938 2871.359375 C 2137.210938 2871.359375 1877.558594 2776.089844 1946.441406 2664.941406 C 2015.328125 2553.789062 2089.519531 2601.429688 2084.21875 2511.449219 C 2078.929688 2421.46875 2073.621094 2410.890625 2031.230469 2310.328125 C 1988.839844 2209.761719 1972.941406 2098.609375 1999.441406 2140.960938 C 2025.929688 2183.300781 2068.320312 2283.859375 2068.320312 2140.960938 C 2068.320312 1998.050781 1957.039062 1908.070312 2121.308594 1712.238281 "/>
<path fill-rule="nonzero" fill="rgb(69.726562%, 44.309998%, 30.979919%)" fill-opacity="1" d="M 1962.328125 1812.808594 C 1957.039062 1781.050781 2116.011719 1627.550781 2036.519531 1595.800781 C 1957.039062 1564.039062 1962.328125 1812.808594 1962.328125 1812.808594 "/>
<path fill-rule="nonzero" fill="rgb(69.726562%, 44.309998%, 30.979919%)" fill-opacity="1" d="M 1639.089844 2416.179688 C 1639.089844 2416.179688 1755.671875 2680.820312 1697.378906 2675.53125 C 1639.089844 2670.238281 1623.191406 2612.019531 1623.191406 2654.359375 C 1623.191406 2696.699219 1681.480469 3003.683594 1607.289062 2924.289062 C 1533.109375 2844.894531 1517.210938 2876.652344 1517.210938 2876.652344 C 1517.210938 2876.652344 1501.308594 3030.144531 1533.109375 3120.121094 C 1564.898438 3210.101562 1405.929688 2940.167969 1469.511719 2871.359375 C 1533.109375 2802.554688 1601.988281 2844.894531 1601.988281 2844.894531 C 1601.988281 2844.894531 1570.199219 2574.960938 1639.089844 2416.179688 "/>
<path fill-rule="nonzero" fill="rgb(69.726562%, 44.309998%, 30.979919%)" fill-opacity="1" d="M 2089.511719 3215.390625 C 2089.511719 3215.390625 2036.519531 3532.957031 1972.929688 3448.277344 C 1909.339844 3363.589844 1893.441406 3416.515625 1893.441406 3416.515625 C 1893.441406 3416.515625 1856.351562 3607.058594 1819.261719 3554.128906 C 1782.171875 3501.203125 1760.96875 3405.933594 1760.96875 3405.933594 C 1760.96875 3405.933594 1771.570312 3638.8125 1829.859375 3469.445312 C 1888.148438 3300.078125 2089.511719 3215.390625 2089.511719 3215.390625 "/>
<path fill-rule="nonzero" fill="rgb(45.092773%, 25.488281%, 15.281677%)" fill-opacity="1" d="M 950.035156 2963.578125 C 878.507812 3260.742188 1147.640625 3226.386719 1147.640625 3226.386719 C 1147.640625 3226.386719 1123.191406 3330.269531 1159.851562 3397.480469 C 1196.511719 3464.6875 1282.050781 3415.8125 1282.050781 3415.8125 C 1282.050781 3415.8125 1239.28125 3556.335938 1239.28125 3623.546875 C 1239.28125 3690.753906 1379.808594 3593.003906 1465.339844 3538.011719 C 1534.089844 3493.816406 1492.371094 3646.890625 1498.699219 3749.949219 L 860.117188 3749.949219 C 860.117188 3749.949219 838.90625 3593.832031 857.441406 3530.320312 C 863.671875 3508.976562 869.539062 3491.839844 874.671875 3478.0625 C 854.476562 3522.898438 823.046875 3582.808594 817.699219 3532.960938 C 809.753906 3458.863281 915.742188 3273.613281 915.742188 3273.613281 C 915.742188 3273.613281 870.695312 3157.183594 902.488281 3046.035156 C 913.730469 3006.734375 931.621094 2980.855469 950.027344 2963.578125 "/>
<path fill-rule="nonzero" fill="rgb(10.205078%, 10.205078%, 10.205078%)" fill-opacity="1" d="M 2738.050781 1914.910156 C 2752.480469 1914.910156 2764.109375 1921.808594 2770.28125 1926.371094 C 2766.109375 1928.910156 2763.808594 1930.140625 2762.328125 1930.929688 C 2658.519531 1936.269531 2590.898438 1963.078125 2597.828125 1971 C 2605.039062 1979.230469 2745.058594 2016.289062 2745.058594 2016.289062 C 2745.058594 2016.289062 2727.558594 2018.371094 2711.078125 2014.21875 C 2694.609375 2010.101562 2608.121094 1981.269531 2594.730469 1978.191406 C 2581.351562 1975.109375 2567.980469 1977.148438 2566.949219 1955.53125 C 2565.910156 1933.910156 2580.328125 1951.269531 2595.769531 1951.421875 C 2611.140625 1951.421875 2699.398438 1935.121094 2733.621094 1915.078125 C 2734.929688 1914.320312 2736.601562 1914.75 2738.050781 1914.75 "/>
<path fill-rule="nonzero" fill="rgb(100%, 66.601562%, 66.601562%)" fill-opacity="1" d="M 2778.53125 2061.589844 C 2778.53125 2061.589844 2791.910156 2045.628906 2781.101562 2038.429688 C 2770.289062 2031.21875 2693.070312 2017.839844 2681.75 2015.261719 C 2670.421875 2012.691406 2680.210938 2032.25 2698.730469 2030.710938 C 2717.269531 2029.171875 2778.53125 2061.589844 2778.53125 2061.589844 "/>
</svg>
